<?xml version="1.0" encoding="iso-8859-1"?>
<!-- Generator: Adobe Illustrator 19.0.0, SVG Export Plug-In . SVG Version: 6.00 Build 0)  -->
<svg version="1.1" id="Capa_1" xmlns="http://www.w3.org/2000/svg" xmlns:xlink="http://www.w3.org/1999/xlink" x="0px" y="0px"
	 viewBox="0 0 512 512" style="enable-background:new 0 0 512 512;" xml:space="preserve">
<g>
	<g>
		<path d="M437.019,74.981C388.667,26.629,324.379,0,255.999,0S123.333,26.629,74.981,74.981S0.001,187.62,0.001,256
			s26.628,132.667,74.98,181.019S187.62,512,255.999,512s132.667-26.629,181.02-74.981c48.352-48.352,74.98-112.639,74.98-181.019
			S485.371,123.333,437.019,74.981z M255.999,482C131.383,482,30.001,380.617,30.001,256S131.383,30,255.999,30
			c124.617,0,226,101.383,226,226S380.616,482,255.999,482z"/>
	</g>
</g>
<g>
	<g>
		<path d="M159.6,144.6c-34.848,0-63.199,28.352-63.199,63.201c0,8.284,6.716,15,15,15s15-6.716,15-15
			c0-18.307,14.893-33.201,33.199-33.201c18.306,0,33.199,14.894,33.199,33.201c0,8.284,6.716,15,15,15s15-6.716,15-15
			C222.799,172.952,194.448,144.6,159.6,144.6z"/>
	</g>
</g>
<g>
	<g>
		<path d="M352.399,144.6c-34.848,0-63.199,28.352-63.199,63.201c0,8.284,6.716,15,15,15s15-6.716,15-15
			c0-18.307,14.893-33.201,33.199-33.201c18.306,0,33.199,14.894,33.199,33.201c0,8.284,6.716,15,15,15s15-6.716,15-15
			C415.598,172.952,387.247,144.6,352.399,144.6z"/>
	</g>
</g>
<g>
	<g>
		<path d="M397.356,290.057c-7.809-2.76-16.38,1.333-19.141,9.144c-18.266,51.678-67.38,86.399-122.216,86.399
			s-103.951-34.721-122.216-86.399c-2.76-7.811-11.332-11.904-19.141-9.144c-7.811,2.76-11.905,11.33-9.144,19.141
			C127.992,372.84,188.474,415.6,255.999,415.6S384.005,372.84,406.5,309.198C409.261,301.387,405.168,292.817,397.356,290.057z"/>
	</g>
</g>
<g>
</g>
<g>
</g>
<g>
</g>
<g>
</g>
<g>
</g>
<g>
</g>
<g>
</g>
<g>
</g>
<g>
</g>
<g>
</g>
<g>
</g>
<g>
</g>
<g>
</g>
<g>
</g>
<g>
</g>
</svg>
